<svg xmlns="http://www.w3.org/2000/svg" width="1200" height="560" viewBox="0 0 1200 560">
  <defs><style>.title{font:700 25px "Noto Sans",Arial,sans-serif;fill:#183153}.label{font:600 17px "Noto Sans",Arial,sans-serif;fill:#183153}.text{font:15px "Noto Sans",Arial,sans-serif;fill:#334155}.num{font:14px Consolas,monospace;fill:#334155}.white{font:600 15px "Noto Sans",Arial,sans-serif;fill:#fff}</style><marker id="arrow" markerWidth="10" markerHeight="10" refX="8" refY="3" orient="auto"><path d="M0 0 L9 3 L0 6 Z" fill="#2563eb"/></marker></defs>
  <rect width="1200" height="560" rx="18" fill="#f8fafc"/><text x="48" y="48" class="title">Complete Mapping: Locate the Task, Then Calculate the Local Bucket</text>
  <text x="48" y="94" class="label">① The Task owns eight contiguous key-groups</text>
  <g transform="translate(48 112)"><rect width="138" height="54" fill="#dbeafe" stroke="#60a5fa"/><text x="69" y="34" text-anchor="middle" class="label">KG 8</text><rect x="138" width="138" height="54" fill="#e0f2fe" stroke="#60a5fa"/><text x="207" y="34" text-anchor="middle" class="label">KG 9</text><rect x="276" width="138" height="54" fill="#dbeafe" stroke="#60a5fa"/><text x="345" y="34" text-anchor="middle" class="label">KG 10</text><rect x="414" width="138" height="54" fill="#e0f2fe" stroke="#60a5fa"/><text x="483" y="34" text-anchor="middle" class="label">KG 11</text><rect x="552" width="138" height="54" fill="#dbeafe" stroke="#60a5fa"/><text x="621" y="34" text-anchor="middle" class="label">KG 12</text><rect x="690" width="138" height="54" fill="#e0f2fe" stroke="#60a5fa"/><text x="759" y="34" text-anchor="middle" class="label">KG 13</text><rect x="828" width="138" height="54" fill="#dbeafe" stroke="#60a5fa"/><text x="897" y="34" text-anchor="middle" class="label">KG 14</text><rect x="966" width="138" height="54" fill="#e0f2fe" stroke="#60a5fa"/><text x="1035" y="34" text-anchor="middle" class="label">KG 15</text></g>
  <text x="48" y="190" class="num">taskRange = [16777216, 33554431], taskSpan = 16777216</text><path d="M600 204 L600 238" stroke="#2563eb" stroke-width="3" marker-end="url(#arrow)"/>
  <text x="48" y="255" class="label">② Subtract taskStart to obtain local offset [0, 16777215]</text><rect x="48" y="276" width="1104" height="24" rx="12" fill="#bfdbfe"/><circle cx="48" cy="288" r="7" fill="#2563eb"/><circle cx="600" cy="288" r="7" fill="#7c3aed"/><circle cx="1152" cy="288" r="7" fill="#2563eb"/><text x="48" y="326" text-anchor="middle" class="num">0</text><text x="600" y="326" text-anchor="middle" class="num">8388608</text><text x="1152" y="326" text-anchor="end" class="num">16777215</text>
  <path d="M600 340 L600 374" stroke="#2563eb" stroke-width="3" marker-end="url(#arrow)"/><text x="48" y="392" class="label">③ Place every 16384 hashes into one local bucket</text>
  <g transform="translate(48 412)"><rect width="145" height="64" rx="7" fill="#2563eb"/><text x="72" y="27" text-anchor="middle" class="white">bucket 0</text><text x="72" y="49" text-anchor="middle" class="white">offset [0, 16383]</text><rect x="153" width="145" height="64" rx="7" fill="#0ea5e9"/><text x="225" y="27" text-anchor="middle" class="white">bucket 1</text><text x="225" y="49" text-anchor="middle" class="white">[16384, 32767]</text><rect x="306" width="90" height="64" rx="7" fill="#e2e8f0"/><text x="351" y="39" text-anchor="middle" class="label">…</text><rect x="404" width="145" height="64" rx="7" fill="#7c3aed"/><text x="476" y="27" text-anchor="middle" class="white">bucket 511</text><text x="476" y="49" text-anchor="middle" class="white">ends at 8388607</text><rect x="557" width="145" height="64" rx="7" fill="#8b5cf6"/><text x="629" y="27" text-anchor="middle" class="white">bucket 512</text><text x="629" y="49" text-anchor="middle" class="white">starts at 8388608</text><rect x="710" width="90" height="64" rx="7" fill="#e2e8f0"/><text x="755" y="39" text-anchor="middle" class="label">…</text><rect x="808" width="296" height="64" rx="7" fill="#2563eb"/><text x="956" y="27" text-anchor="middle" class="white">bucket 1023</text><text x="956" y="49" text-anchor="middle" class="white">offset [16760832, 16777215]</text></g>
  <rect x="48" y="506" width="1104" height="34" rx="8" fill="#ecfdf5" stroke="#34d399"/><text x="600" y="529" text-anchor="middle" class="text">16777216 → bucket 0  |  25165823 → bucket 511  |  25165824 → bucket 512  |  33554431 → bucket 1023</text>
</svg>
